Teagan: Video Nasty
2009

Ben English, Brianna Love, Gianna, Jenan Haze, Jenna Haze, Jenny Hendrix, Marco Banderas, Mick Blue, Starla Sterling, Teagan, Teagan Presley, Tommy Gunn, Tony de Sergio, Tony Desergio, Tyler Durden


Gunn, Tony de Sergio, Tony Desergio, Tyler Durden

 BIu-Ray Version. CeIeste unIeashes her dirty side in TEAGAN: VlDEO NASTY 5. Superstars Teagan PresIey and Jenna Haze set the tone for the fiIthy, nasty ride of pIeasure. Teagan and Jenna tap every hole on each other's perfect bodies. Gianna makes her men get on their knees and beg to suck her tits and fuck her pussy. Both Teagan and Jenny Hendrix spread their asses and create an inviting entryway for wiIIing and able cocks. "Teagan: Video Nasty 5" also features hotties Brianna Love and StarIa Sterling. Celeste creates the perfect baIance of artistic sex and hardcore smut.


HD video: 720p
video: Blu-Ray    H.264/AVC
video 1280x720 (16:9) (29.970) Bit Rate: 6,460 kbps
audio AC3  
audio English (2 CH AC3) 224 kbps 48.0 KHz



Scrin
 
http://bayimg.com/LAJhbaAEm
 
http://bayimg.com/lajhFAAEm
 
http://bayimg.com/LAJhGAaEM
 
http://bayimg.com/LajHIAaeM
 
http://bayimg.com/LaJhjaaeM
 
http://bayimg.com/LAjHKAAeM
 
http://bayimg.com/laJHlaAeM
 
http://bayimg.com/laJhMAAEM
 
http://bayimg.com/lajhNaAem
 
http://bayimg.com/LajhOAaEm
 
http://bayimg.com/MaJHaAaem
 
http://bayimg.com/MAJhbaaEm




   General
      Unique ID : 173269292876597101727877638596700921019 (0x825A73B39C358B958F47A3FDE4A3DCBB
      Format : Matroska
      Format version : Version 2
      File size : 4.37 GiB
      Duration : 2h 0mn
      Overall bit rate : 5 198 Kbps
      Encoded date : UTC 2009-07-01 04:40:46
      Writing application : mkvmerge v2.9.5 ('Tu es le seul') built on Jun  7 2009 11:07:07
      Writing library : libebml v0.7.7 + libmatroska v0.8.1
   Video #1
      ID : 1
      Format : AVC
      Format/Info : Advanced Video Codec
      Format profile : High@L4.1
      Format settings, CABAC : Yes
      Format settings, ReFrames : 5 frames
      Codec ID : V_MPEG4/ISO/AVC
      Duration : 2h 0mn
      Bit rate : 4 748 Kbps
      Width : 1 280 pixels
      Height : 720 pixels
      Display aspect ratio : 16:9
      Frame rate : 29.970 fps
      Color space : YUV
      Chroma subsampling : 4:2:0
      Bit depth : 8 bits
      Scan type : Progressive
      Bits/(Pixel*Frame) : 0.172
      Stream size : 3.91 GiB (89%)
      Writing library : x264 core 67 r1173M f6d3166
      Encoding settings : cabac=1 / ref=5 / deblock=1:0:0 / analyse=0x3:0x133 /
      Language : English
   Audio #2
      ID : 2
      Format : AC-3
      Format/Info : Audio Coding 3
      Mode extension : CM (complete main)
      Codec ID : A_AC3
      Duration : 2h 0mn
      Bit rate mode : Constant
      Bit rate : 448 Kbps
      Channel(s) : 6 channels
      Channel positions : Front: L C R, Side: L R, LFE
      Sampling rate : 48.0 KHz
      Bit depth : 16 bits
      Compression mode : Lossy
      Stream size : 386 MiB (9%)
      Language : English

size  4.37 GB